HIERARCHY
ROOT Hips
{
	OFFSET 0.000000 0.000000 0.000000
	CHANNELS 6 Xposition Yposition Zposition Zrotation Yrotation Xrotation 
	JOINT LHipJoint
	{
		OFFSET 0.000000 0.000000 0.000000
		CHANNELS 3 Zrotation Yrotation Xrotation
		JOINT LeftUpLeg
		{
			OFFSET 1.363060 -1.794630 0.839290
			CHANNELS 3 Zrotation Yrotation Xrotation
			JOINT LeftLeg
			{
				OFFSET 2.448110 -6.726130 0.000000
				CHANNELS 3 Zrotation Yrotation Xrotation
				JOINT LeftFoot
				{
					OFFSET 2.562200 -7.039590 0.000000
					CHANNELS 3 Zrotation Yrotation Xrotation
					JOINT LeftToeBase
					{
						OFFSET 0.157640 -0.433110 2.322550
						CHANNELS 3 Zrotation Yrotation Xrotation
						End Site
						{
							OFFSET 0.000000 0.000000 0.000000
						}
					}
				}
			}
		}
	}
	JOINT RHipJoint
	{
		OFFSET 0.000000 0.000000 0.000000
		CHANNELS 3 Zrotation Yrotation Xrotation
		JOINT RightUpLeg
		{
			OFFSET -1.305520 -1.794630 0.839290
			CHANNELS 3 Zrotation Yrotation Xrotation
			JOINT RightLeg
			{
				OFFSET -2.542530 -6.985550 0.000000
				CHANNELS 3 Zrotation Yrotation Xrotation
				JOINT RightFoot
				{
					OFFSET -2.568260 -7.056230 0.000000
					CHANNELS 3 Zrotation Yrotation Xrotation
					JOINT RightToeBase
					{
						OFFSET -0.164730 -0.452590 2.363150
						CHANNELS 3 Zrotation Yrotation Xrotation
						End Site
						{
							OFFSET 0.000000 0.000000 0.000000
						}
					}
				}
			}
		}
	}
}
MOTION
Frames: 11
Frame Time: 0.008333
27.199952 16.713075 4.683577 -134.782317 -87.295662 152.413615 -11.424888 3.281919 -0.157346 -4.351059 7.726295 1.707920 -1.433382 -0.090298 12.079081 1.101691 7.243481 -5.152554 0.224000 -0.000000 -66.892800 7.889529 -0.950489 4.913527 8.666855 8.609822 -42.840327 2.988376 -0.022764 10.855639 -0.196964 -2.338876 7.466750 -1.571200 0.000000 -30.988600
27.046425 16.739653 4.650423 -131.288452 -87.121147 148.852997 -11.539430 3.286880 -0.151980 -3.856030 7.441785 1.410646 -1.251076 0.092751 13.681454 1.135094 7.734036 -3.744663 0.449099 0.000000 -69.679600 7.752522 -1.066212 4.925252 8.963738 9.147265 -42.426722 2.948432 -0.109491 11.586000 -0.249930 -2.548609 7.242033 -1.613899 -0.000000 -30.407000
26.893125 16.767875 4.615983 -128.533241 -86.931092 146.012236 -11.660418 3.292958 -0.162188 -3.362407 7.253233 1.000984 -1.063658 0.284377 15.456226 1.166996 8.167879 -2.184103 0.704200 0.000000 -72.234500 7.618660 -1.170277 4.932035 9.275492 9.660670 -41.919650 2.922084 -0.175491 12.219877 -0.302402 -2.732559 6.853656 -1.637700 -0.000000 -29.765700
26.740434 16.797322 4.579868 -126.396564 -86.742539 143.777793 -11.781265 3.299897 -0.183289 -2.886382 7.156124 0.465603 -0.871728 0.480069 17.399406 1.202285 8.558814 -0.473291 0.985900 -0.000000 -74.350100 7.495945 -1.261598 4.934483 9.595336 10.126886 -41.327497 2.908137 -0.220895 12.743857 -0.354613 -2.895595 6.331912 -1.644900 0.000000 -29.068700
26.588369 16.827617 4.542059 -124.688153 -86.566980 141.964635 -11.899073 3.304743 -0.211555 -2.435623 7.145571 -0.203198 -0.675853 0.674383 19.502956 1.246480 8.924238 1.370047 1.290200 0.000000 -75.818900 7.387761 -1.341596 4.933056 9.923141 10.529117 -40.656602 2.905962 -0.245920 13.143305 -0.406671 -3.044143 5.716855 -1.639101 -0.000000 -28.321800
26.437220 16.858384 4.502654 -123.254358 -86.411576 140.423096 -12.011351 3.303131 -0.242852 -2.018230 7.209049 -1.008783 -0.477750 0.861349 21.754607 1.305819 9.291257 3.306121 1.613600 0.000000 -76.438200 7.296060 -1.411957 4.928165 10.258871 10.854279 -39.918002 2.914732 -0.251663 13.410994 -0.457852 -3.180910 5.050772 -1.623600 -0.000000 -27.544500
26.286962 16.889267 4.461653 -122.051000 -86.284086 139.118019 -12.113393 3.291799 -0.271476 -1.652547 7.322659 -1.950539 -0.281235 1.035119 24.135450 1.386078 9.697335 5.277563 1.956700 0.000000 -76.031600 7.224393 -1.473460 4.920562 10.595327 11.089362 -39.133269 2.932747 -0.240294 13.551983 -0.505896 -3.299164 4.369528 -1.599100 -0.000000 -26.750200
26.137835 16.919998 4.419397 -121.004692 -86.186619 137.979319 -12.202715 3.266481 -0.294645 -1.348055 7.467262 -3.022924 -0.091554 1.191593 26.627157 1.489746 10.173414 7.204483 2.320700 -0.000001 -74.478199 7.173000 -1.527827 4.910602 10.929371 11.229606 -38.320228 2.958748 -0.214342 13.575378 -0.548519 -3.392521 3.704483 -1.566800 -0.000000 -25.963100
25.990376 16.950286 4.376613 -119.964489 -86.112292 136.855949 -12.281779 3.221693 -0.313419 -1.095942 7.635315 -4.215754 0.086146 1.329149 29.210789 1.615005 10.735816 8.995348 2.704700 -0.000000 -71.760400 7.135720 -1.579396 4.899552 11.268595 11.285073 -37.486034 2.992912 -0.175518 13.484995 -0.584782 -3.462787 3.083113 -1.530200 0.000000 -25.191100
25.844288 16.979913 4.333469 -118.979878 -86.062814 135.802810 -12.346572 3.157915 -0.326602 -0.911385 7.805999 -5.517532 0.245973 1.448877 31.859617 1.758515 11.407306 10.560879 3.110200 0.000000 -67.981700 7.114114 -1.627906 4.887544 11.601075 11.257153 -36.653971 3.032964 -0.127501 13.307204 -0.611768 -3.495813 2.514404 -1.487600 -0.000000 -24.459700
25.700235 17.008698 4.290441 -118.020648 -86.032964 134.787406 -12.397899 3.074960 -0.336821 -0.791600 7.970106 -6.911369 0.385086 1.554520 34.544093 1.914322 12.191392 11.828418 3.533000 0.000001 -63.405100 7.104312 -1.674614 4.874370 11.924788 11.160114 -35.832327 3.077781 -0.072917 13.060384 -0.628721 -3.488824 2.002352 -1.439600 0.000000 -23.780500
